<svg xmlns="http://www.w3.org/2000/svg" fill="none" viewBox="8 5.28 24.72 29.52" style="max-height: 500px" width="24.72" height="29.52">
<path stroke-linejoin="round" stroke-linecap="round" stroke-width="1.5" stroke="#565D64" d="M12 32V29.3333C12 27.9188 12.5619 26.5623 13.5621 25.5621C14.5623 24.5619 15.9188 24 17.3333 24H22.6667C24.0812 24 25.4377 24.5619 26.4379 25.5621C27.4381 26.5623 28 27.9188 28 29.3333V32M14.6667 13.3333C14.6667 14.7478 15.2286 16.1044 16.2288 17.1046C17.229 18.1048 18.5855 18.6667 20 18.6667C21.4145 18.6667 22.771 18.1048 23.7712 17.1046C24.7714 16.1044 25.3333 14.7478 25.3333 13.3333C25.3333 11.9188 24.7714 10.5623 23.7712 9.5621C22.771 8.5619 21.4145 8 20 8C18.5855 8 17.229 8.5619 16.2288 9.5621C15.2286 10.5623 14.6667 11.9188 14.6667 13.3333Z"/>
</svg>
